# xmcd
#
# Track frame offsets:
#	150
#	19683
#	36559
#	54449
#	72948
#	86755
#	105775
#	125151
#	143845
#	161593
#	179444
#
# Disc length: 2640 seconds
#
# Revision: 5
# Processed by: cddbd v1.5.2PL0 Copyright (c) Steve Scherf et al.
# Submitted via: EasyCDDAExtractor 15.3.0.1
#
DISCID=950a4e0b
DTITLE=Pablo Alboran - Tanto
DYEAR=2012
DGENRE=Latin
TTITLE0=El Beso
TTITLE1=Donde Esta El Amor
TTITLE2=Yo No Lo Sabia
TTITLE3=Deshidratandome
TTITLE4=Toda La Noche
TTITLE5=Sere
TTITLE6=Tanto
TTITLE7=Quien
TTITLE8=En Brazos De Ella
TTITLE9=Extasis
TTITLE10=Me Ire
EXTD=
EXTT0=
EXTT1=
EXTT2=
EXTT3=
EXTT4=
EXTT5=
EXTT6=
EXTT7=
EXTT8=
EXTT9=
EXTT10=
PLAYORDER=
